<svg width="17" height="17" viewBox="0 0 17 17" fill="none" xmlns="http://www.w3.org/2000/svg">
<path d="M17 8.41438C17 8.78642 16.8559 9.14606 16.5864 9.40649C16.3233 9.67312 15.9598 9.82194 15.5839 9.82194H9.91928V15.4274C9.91928 15.7994 9.76889 16.1591 9.49945 16.4195C9.23627 16.6799 8.8791 16.8288 8.50313 16.8288C8.12716 16.8288 7.76373 16.6799 7.50055 16.4195C7.23111 16.1591 7.08072 15.7994 7.08072 15.4274V9.82194H1.41614C1.04018 9.82194 0.676742 9.67312 0.413564 9.40649C0.150387 9.14606 0 8.78642 0 8.41438C0 8.04233 0.150387 7.68889 0.413564 7.42226C0.676742 7.16183 1.04018 7.01301 1.41614 7.01301H7.08072V1.40756C7.08072 1.03552 7.23111 0.675878 7.50055 0.415448C7.76373 0.148817 8.12716 0 8.50313 0C8.8791 0 9.23627 0.148817 9.49945 0.415448C9.76889 0.675878 9.91928 1.03552 9.91928 1.40756V7.01301H15.5839C15.9598 7.01301 16.3233 7.16183 16.5864 7.42226C16.8559 7.68889 17 8.04233 17 8.41438Z" fill="#53B175"/>
</svg>
