<svg width="15" height="15" viewBox="0 0 15 15" fill="none" xmlns="http://www.w3.org/2000/svg">
<path d="M14.578 12.7143L14.577 12.7134L9.99007 8.33817L9.98982 8.33793L8.95476 7.36358L14.5769 2.01423C14.6949 1.90196 14.7912 1.77672 14.8519 1.63819C14.9115 1.5021 14.9478 1.35349 14.9478 1.20366C14.9478 1.04675 14.9243 0.896653 14.8511 0.756566C14.7922 0.62242 14.7089 0.485969 14.5998 0.382209L14.5999 0.382157L14.5978 0.380376C14.4809 0.280318 14.3502 0.189368 14.2056 0.132057C14.0605 0.0745204 13.8934 0.0521956 13.7402 0.0521956C13.5839 0.0521956 13.429 0.086524 13.2762 0.142445L13.2762 0.142428L13.2749 0.14294C13.1303 0.200249 12.999 0.291399 12.8921 0.393092L6.41778 6.55321C6.30924 6.65649 6.22538 6.78217 6.16573 6.91837L6.16571 6.91836L6.16515 6.91975C6.1062 7.06558 6.06983 7.21382 6.06983 7.36378C6.06983 7.51361 6.10613 7.66222 6.16573 7.79831C6.22538 7.93451 6.30924 8.06019 6.41778 8.16346L12.8921 14.3236L12.8921 14.3236L12.8931 14.3245C13.1212 14.5301 13.4201 14.6318 13.7288 14.6318C14.0399 14.6318 14.3387 14.5067 14.5541 14.3018C14.7809 14.086 14.9017 13.8117 14.902 13.5141C14.9138 13.2157 14.7929 12.9302 14.578 12.7143Z" fill="#B3B3B3" stroke="#B3B3B3" stroke-width="0.1"/>
<path d="M0.422044 1.96976L0.423006 1.9707L5.00993 6.34591L5.01018 6.34614L6.04524 7.3205L0.423052 12.6698C0.305052 12.7821 0.208792 12.9073 0.148123 13.0459C0.0885281 13.182 0.0522274 13.3306 0.0522274 13.4804C0.0522274 13.6373 0.0756801 13.7874 0.148862 13.9275C0.207803 14.0617 0.291123 14.1981 0.400175 14.3019L0.400126 14.3019L0.402206 14.3037C0.519051 14.4038 0.64984 14.4947 0.794404 14.552C0.939533 14.6096 1.10664 14.6319 1.25976 14.6319C1.41612 14.6319 1.571 14.5975 1.72382 14.5416L1.72382 14.5416L1.72512 14.5411C1.86967 14.4838 2.00102 14.3927 2.1079 14.291L8.58222 8.13086C8.69076 8.02758 8.77462 7.9019 8.83427 7.7657L8.83429 7.76571L8.83485 7.76432C8.8938 7.61849 8.93017 7.47025 8.93017 7.32029C8.93017 7.17047 8.89387 7.02186 8.83427 6.88577C8.77462 6.74956 8.69076 6.62389 8.58222 6.52061L2.10791 0.360489L2.10792 0.360475L2.10687 0.359533C1.87883 0.153973 1.57993 0.0522426 1.2712 0.0522426C0.960061 0.0522426 0.661294 0.177344 0.445931 0.382255C0.219057 0.598119 0.0982665 0.872389 0.0979836 1.17001C0.0862342 1.4684 0.207077 1.75386 0.422044 1.96976Z" fill="#B3B3B3" stroke="#B3B3B3" stroke-width="0.1"/>
</svg>
