<svg width="48" height="56" viewBox="0 0 48 56" fill="none" xmlns="http://www.w3.org/2000/svg">
<path fill-rule="evenodd" clip-rule="evenodd" d="M32.6421 4.34102C32.8817 2.2004 31.3641 0.267454 29.2235 0.0278321C27.0828 -0.227764 25.1499 1.30581 24.9103 3.44643C24.6227 5.89058 25.0221 8.81396 25.5333 11.8172C26.955 12.2485 28.3289 12.8716 29.6069 13.6064C30.9807 10.3635 32.3226 7.15258 32.6421 4.34102ZM47.6743 13.7342C46.8277 11.7533 44.5273 10.8587 42.5464 11.7054C39.9425 12.8396 37.2428 15.0601 34.5271 17.3445C35.5495 18.3509 36.508 19.4851 37.3227 20.7152C40.4058 20.3318 43.3611 19.8685 45.6455 18.8781C47.6264 17.9995 48.537 15.6991 47.6743 13.7342ZM41.1087 3.28669C39.3834 2.0087 36.9393 2.36015 35.6613 4.08543C33.7124 6.70529 32.4024 10.6191 30.9807 14.4371C31.4599 14.7566 31.9072 15.0761 32.3385 15.4115C32.658 15.6671 32.9935 15.9387 33.329 16.2103C36.5878 13.7502 39.9745 11.354 41.9234 8.73409C43.2014 7.00881 42.834 4.56467 41.1087 3.28669Z" fill="#53B175"/>
<path d="M33.6965 34.5653C32.4984 35.8593 31.2204 37.0574 29.8626 38.2236C27.9616 39.869 26.0286 41.4664 24.0637 43C21.955 41.7061 20.4374 41.0511 20.1818 41.3866C19.9582 41.6901 20.8368 42.8083 22.4183 44.262C17.1147 48.2078 11.5075 51.6903 5.48504 54.5498C4.54253 54.9971 3.55209 55.3166 2.57763 55.668C2.32204 55.7639 2.05047 55.7639 1.93864 55.7798C0.405063 55.9556 -0.0582057 55.5402 0.00569343 54.1344C0.197391 49.7574 1.55525 45.6518 2.96103 41.5623C3.34442 40.4441 3.74379 39.3258 4.15914 38.2076C6.28378 39.5015 7.80139 40.1725 8.05698 39.837C8.32855 39.4696 7.05057 37.9999 4.90995 36.1628C6.44353 32.2011 8.15283 28.3032 10.1657 24.5651C14.1913 27.5524 17.7696 29.5173 18.169 28.9742C18.5684 28.431 15.6131 25.5396 11.5395 22.5204L11.3638 22.3926C12.0667 21.1945 12.8015 19.9963 13.5843 18.8302C14.5587 17.3605 15.7568 16.0186 16.939 14.7087C18.5205 12.9674 20.5652 12.3764 22.8496 12.8876C30.1661 14.517 35.2461 18.7184 37.6423 25.923C38.1215 27.3927 37.6902 28.8304 36.9394 30.1563C36.4282 31.0509 35.8691 31.8976 35.2461 32.6963C31.3802 29.8688 28.0255 28.0476 27.6421 28.5588C27.2746 29.07 29.9424 31.7059 33.6965 34.5653Z" fill="#F3603F"/>
</svg>
